<?xml version="1.0" encoding="UTF-8"?>
<svg id="Warstwa_1" xmlns="http://www.w3.org/2000/svg" version="1.1" viewBox="0 0 3000 3000">
  <!-- Generator: Adobe Illustrator 29.5.1, SVG Export Plug-In . SVG Version: 2.1.0 Build 141)  -->
  <path d="M501.96,1134.19s-.25,3.03.87,3.65c27.44,15.92,21,23.66,27.13,50.42.37,1.73,4.09,1.36,4.52,3.22,4.15,17.09,2.85,25.39,9.17,44.35,5.76,17.22.87,46.14,4.89,63.98,13.07,57.97-3.59,123.13,9.29,181.29.43,1.86,4.21.62,4.77,4.89,1.36,10.28,1.3,43.35,0,53.76-.62,4.95-6.69,2.23-4.89,9.1.25.93,4.21.87,4.65,2.73,1.8,7.74-.81,20.87,0,29.85.93,10.34,8.98,19.14,2.11,29.98-3.28,5.14-12.51,6.13-11.4,16.41.81,7.74,7.25,6.19,10.84,9.1,8.42,6.69,15.24,14.93,25.89,18.15,3.28,5.57-2.54,11.64-7.56,13.63-21-2.17-44.04,6.5-64.54-.37-2.04-.68-2.11-3.78-3.59-4.27-33.26-11.27-63.24-20.07-96.19-33.01-1.73-.68-2.04-3.72-5.08-4.77-6.81-2.35-15.61-3.03-22.54-.93-6.01,4.15.12,29.48.25,37.22.19,11.52-5.2,32.58-2.04,41.56.93,2.73,14.06,12.2,16.91,15.67,7.87,9.48,13.5,23.72,22.98,31.59,15.48,12.88,26.76,23.23,41.87,37.1,6.81,6.26,20.87,10.1,17.71,22.42-.25.99-8.61,8.36-10.34,8.67-24.34,4.83-32.27-13.38-47.13-25.7-3.34-2.79-10.28-3.78-11.64-5.14-2.23-2.29-1.11-10.59-5.26-14.49-3.84-3.59-9.29-2.17-12.14-3.65-.56-.31-10.1-6.87-10.53-7.37-5.7-6.63-.81-22.05-21.49-18.02.06,7.8.62,15.36-1.49,23.04-2.48,9.17-11.95,27.07-15.17,35.92-5.26,14.55-7.99,36.23-13.75,50.79-.5,1.24-14.93,18.52-16.1,19.2-8.86,5.45-15.3-2.48-20.5-5.51-4.89-2.79-10.96,2.42-9.66-10.47.93-9.23,7.93-9.1,9.17-12.45,2.97-8.05,2.42-23.54,4.95-33.51,5.26-20.44,17.22-46.02,22.92-66.27,1.92-6.94,5.26-36.23,4.77-43.73-1.05-17.03-26.14-31.53-36.42-43.73-2.29-2.73-2.6-9.23-6.13-12.45-3.47-3.22-9.79-3.03-13.38-7-6.75-7.62-19.26-26.51-26.76-36.42-17.84-23.41-56.61-82.99-80.14-97.67-3.78-2.35-10.71-1.61-13.25-4.15-2.85-2.79-1.67-10.34-4.03-13.44-3.22-4.21-17.4-13.38-24.22-22.85-24.71-34.44-43.85-69.68-69.12-104.42-9.6-13.25-27.81-29.91-35.18-43.91-2.66-5.02-2.97-11.46-2.79-17.03,9.1.56,19.26-1.36,28.18.99.99.25,16.78,10.65,17.53,11.4,3.65,3.65,3.9,9.72,6.19,12.39,5.88,6.87,17.84,14.68,23.35,21.86,10.96,14.18,20.31,30.84,32.45,45.46,17.59,21.18,34.19,41.19,49.49,64.29,8.98,13.63,10.78,20.75,23.23,32.64,13.32,12.76,23.29,25.39,34.13,39.14,9.41,12.02,17.71,20.13,27.07,31.4,23.41,28.18,38.09,61.07,67.45,85.47,2.66,2.23,1.8,8.61,10.41,5.88.99-.31,9.72-17.28,9.91-18.33,1.73-8.18-4.4-15.24,7.56-20.19v-2.29c-.37-1.67-16.54-9.41-18.15-14.31-2.54-7.62,2.48-21.12.87-24.09-6.87-12.82-28.68-8.42-31.4-24.53-3.34-19.76,5.2-18.64,21.93-17.28,16.17,1.3,20.56,12.14,35.8,8.98,3.1-6.57,1.24-15.42,2.66-21.37.19-.81,12.33-8.3.19-11.09l-.19-4.4c11.33-2.54,7.18-26.45,9.29-35.61.99-4.27,13.07-27.93,13.81-31.09,3.16-13.38-.37-35.12,4.52-50.79,2.42-7.68,12.26-26.38,14-32.95,2.11-7.99,1.05-24.46,4.83-31.4,2.48-4.52,10.96-2.85,5.39-15.24-1.49-3.22-8.61-2.66-5.26-7.31.19-.25,3.16.31,4.4-1.8,4.77-8.42-.99-18.89.62-29.11,2.97-18.33,22.79-13.81,36.73-12.26l12.7,18.64c-2.17,11.21-.25,23.97-3.41,34.93-1.24,4.21-4.09,3.72-4.52,5.26-8.61,31.65-13.75,62.55-23.66,93.96-4.34,13.63-3.65,26.26-7.74,39.27-1.42,4.58-5.51,4.15-5.88,6.01-6.87,31.96-4.09,62.31-14.12,96.56-.56,1.8-7.06,1.98-4.58,9.79,10.41.31,12.94,7.18,17.96,10.1,16.41,9.48,37.47,19.26,54.75,26.69,8.86,3.84,20.13,4.34,29.67,3.96l-4.83-112.1c-6.38-13.5-6.01-40.82-6.94-58.59-1.73-32.27-.19-65.96-6.75-95.81-4.21-18.95-.81-49.05-4.71-66.52-.37-1.55-4.52-1.42-6.32-7.93-5.88-20.93-1.8-40.38-12.2-61.87-.99-2.04-4.77-.74-4.77-2.73,0-.87,7.18-13.01,8.49-14.93,1.98-2.91,7.43-1.49,5.57-8.3-.25-.99-4.27-.93-4.65-2.73-.5-2.35-1.98-22.98-1.36-24.03,4.27-7,17.4-3.16,23.04-4.58,1.8-.43,1.11-7.93,6.07-4.65l.06.19Z"/>
  <path d="M1540.8,1624.47l.12-9.17,9.29-1.11c4.34-24.9,24.71-14.93,42.43-18.15,1.61-.31,15.79-9.29,20.56-11.33,23.29-10.03,28.06-10.71,54.01-13.87,13.63-1.67,42.92-17.16,57.6-23.29,2.29-.99,1.42-6.57,9.66-4.46,1.67.43,1.67,7.37,8.42,4.65.56-5.82,1.55-16.97,4.52-21.62,1.86-2.97,7.56-2.97,9.04-7.8,1.55-5.2-.74-11.77.25-15.67.31-1.11,18.21-7,14.12-15.24-19.01,3.53-12.26-5.08-18.46-12.45-12.76-15.3-47.69-23.85-59.64-37.22-1.86-2.04-1.36-6.32-4.21-8.67-2.23-1.86-6.87-1.49-7.8-2.6-1.24-1.49-.68-7.87-2.85-11.83-2.04-3.72-12.94-12.82-13.44-13.69-1.05-1.8-3.1-32.95-4.58-40.75-2.6-13.38-4.21-17.84-5.88-31.28-5.26-41.81-7-86.4,10.71-124.37.43-.87,12.94-13.56,13.87-13.94,3.03-1.3,8.11-.19,8.67-.62,1.05-.93-1.73-20.31,5.39-27.19,1.67-1.61,7.25-2.35,10.41-4.58,11.15-7.93,16.17-6.57,23.1-10.78,17.09-10.34,9.41-10.65,33.69-18.09,1.86-.56,1.8-3.96,3.47-4.4,13.81-3.22,37.9,2.35,53.08-.25l30.04,25.77c4.95,11.27-.81,18.02-8.92,24.84-1.3,1.11-4.83.31-5.51,1.18-1.18,1.36-2.54,15.24-4.52,19.88-2.79,6.57-23.29,18.21-26.2,8.73-1.05-3.34,12.39-19.32,16.17-19.82l-1.24-4.65c-13.69-7.43-13.75,1.86-19.01,4.71-24.59,13.44-33.2,18.46-51.78,40.63-22.05,26.32-31.9,49.42-39.58,83.18-.43,1.92-4.03,1.67-4.4,3.34-2.17,9.17-2.11,56.55,0,66.52.25,1.24,12.39,11.89,7,22.42,10.71-2.48,11.52,9.04,20.19,11.09,10.59,2.48,13.81,5.14,18.95,6.57,6.13,1.67,30.84,2.35,33.01,4.77l22.42,37.41c.62,8.05,1.24,17.03.56,25.02-1.42,15.67-11.58,27.5-18.39,40.2-1.55,2.85-.12,8.67-3.65,12.14-4.03,4.03-13.81,2.54-16.91,5.14-.68.56-6.19,11.33-9.79,14.55-13.07,11.83-32.27,8.92-45.34,22.17-9.17,9.29-4.09,14.93-23.47,18.33-13.69,2.42-25.64,7.56-37.59,8.86-6.19.68-22.79-1.8-27.87-.12-2.17.68-25.64,17.03-27.25,17.03h-52.27l-.19-.12ZM1798.14,1156.8c13.87-12.76-18.89-6.69-21.68-6.63-33.82.93-25.39,1.18-51.59,16.41-3.16,1.8-9.97,2.17-12.82,4.58-1.49,1.24-12.76,29.91-14.86,34.44-1.18,2.6-4.27,2.54-5.14,4.71-2.17,5.51-7.37,31.9-4.83,35.37,13.19-1.73,16.41-17.96,23.16-26.14,19.32-23.72,40.26-41.68,68.31-50.91,2.97-.99,2.97-5.14,5.64-6.5,3.78-1.92,10.41-2.17,13.81-5.33h0Z"/>
  <path d="M2581.63,1273.86c.06,9.79,9.54,15.3,7.25,23.66-.5,1.73-4.15,1.42-4.52,3.16-4.52,20.01-5.82,50.48-12.02,69-1.05,3.16-6.07,2.91-6.69,5.39-2.91,11.33,3.96,31.71-2.73,43.35-1.73,2.97-5.7,3.16-6.5,5.57-4.65,14.49,1.24,42.55-4.89,59.15-.87,2.23-5.08,2.17-5.7,8.61-1.55,15.79,2.23,21.31-3.59,40.13-2.91,9.29-15.3,41.13-15.79,49.86-.56,10.34,3.1,19.32,2.11,29.85-.56,5.88-7.56,27.19-10.47,31.4-1.61,2.35-5.95,1.67-7.43,3.03-14,12.88-6.5,5.08-22.42,8.61-1.67.37-1.36,4.09-3.16,4.52-24.59,6.19-4.27-20.93-20.38-23.29-13.5-2.04-12.76,4.34-14.43,4.71-9.04,2.04-17.53,1.49-27.87,5.45-1.73.68-7.93,10.34-16.97,6.19l-2.66-15.98-18.27-.31,1.05-27.99,10.59-5.7c2.42-10.71-9.29-.93-7-11.64,13.38-6.81,6.94-28.24,9.41-39.02.19-.81,7.12-5.39,6.81-14.68-.19-4.83-5.14-4.21-6.87-7.31-10.9-19.82,13.32-24.84,14.06-27.5.56-1.98.37-13.19-.19-15.61-.43-1.8-4.15-1.42-4.58-3.1-2.29-8.18,3.72-7.56,4.46-9.54,1.55-4.09,1.36-9.66,2.91-12.88,3.72-7.62,15.05-4.71,21.12-6.38,1.67-.43,2.11-7.62,14-4.58,3.1.81,2.29,9.1,9.72,6.94,2.17-.62,2.91-5.64,5.14-7,11.95-7.49,45.4,13.01,41.25-21l10.59-2.17c1.92-5.88-6.32-5.64-7.06-8.24-1.67-5.76,6.19-8.24,9.54-11.77.68-4.58-4.4-7.37-4.77-11.4-1.05-11.58,6.94-44.66,12.14-55.31,1.61-3.34,5.95-3.41,6.5-5.51,3.28-12.63-4.09-36.29,4.52-50.17,1.61-2.6,11.71-3.9,15.79-5.64,2.85-1.18,2.66-4.89,4.52-5.26,2.73-.62,22.54-.5,23.66.25l-.19.12ZM2507.55,1473.41h-16.29v11.64h16.29v-11.64ZM2485.81,1530.83c1.55-5.82,8.73-26.94,1.61-29.3l-24.09,3.16c-2.91,7.62-18.27,19.63-4.77,24.65l.19,4.46-13.87,9.35,1.36,4.77,7.62,2.42.5,3.16c-4.15,10.1-2.97,23.04-4.95,32.08-.37,1.67-3.72,1.8-4.34,3.47-3.1,8.24-7.25,14.8-2.23,23.41,7.62,3.9,9.29-4.03,10.59-4.27,6.87-1.55,16.6,2.04,23.6-2.79,7.18-22.54,2.04-49.05,4.83-70.61.5-4.03,3.84-3.34,4.03-4.03l-.06.06Z"/>
  <path d="M2922.89,1450.93c8.49,3.72,20.01,5.39,26.69,8.61,2.42,1.11,2.35,3.9,4.52,5.7,1.24.99,2.54,1.18,2.97,1.3,5.02,1.42,11.02,6.19,13.38,8.55,6.5,6.63,6.57,16.85,6.44,20.31-.68,2.79-1.55,7-2.29,12.2-2.48,17.4,1.11,25.08,0,39.02-1.55,18.7-5.26,42.49-9.1,58.71-.99,4.21-2.11,11.4-2.48,15.73-1.3,16.41,4.77,41.5-.5,55.31-.5,1.3-18.46,19.82-19.82,20.19-6.57,1.73-19.26-1.05-26.82-.12l-10.96-13.81c2.29,3.84-8.86,15.11-10.84,15.92-12.39,5.08-3.03-10.03-14.74-6.63v9.35c-15.61-6.63-14.8,2.29-22.05,4.89-14.68,5.26-28.74,1.92-42.18.5-4.46-.43-7.68,2.73-14.18.06-5.88-2.42-6.19-12.94-9.04-14.93-5.33-3.65-16.72-.19-21.93-6.01-4.03-6.32-2.85-44.59.37-52.4,1.05-2.6,5.14-1.92,6.26-8.05,1.49-8.36-.68-17.03,2.48-25.46,1.24-3.28,4.52-3.1,4.95-4.83,2.73-11.09,2.6-29.17,4.58-41.13l7.25-2.54.93-29.11,19.82-2.23c-.99-10.28-4.03-21.18-4.83-31.34-.5-6.57,3.78-11.95.25-18.09-1.24-2.11-6.94-1.05-4.71-9.35,3.84-5.02,10.41-4.89,15.48-7.12.87-.37,1.3-3.03,2.66-3.53,8.11-3.03,20.19-3.9,28.61-1.55,5.14,1.42,4.27,9.1,8.86,5.7.31-.25-.37-3.22,1.92-4.27,9.66-4.52,48.68-3.47,58.1.62l-.06-.19ZM2916.51,1487.41c-7.12-2.35-6.13,3.53-8.61,4.52-3.1,1.24-10.03-1.49-12.26,3.59-3.78,8.61,8.49,4.95,9.29,10.41-8.49-2.54-8.3,3.72-14.18,5.51-12.33,3.72-17.9,1.98-29.48,8.24-7.18,3.9-9.91-1.42-11.83,13.25-1.24,9.1-4.71,17.71-5.08,20.56-.56,4.15-.62,19.32.25,22.98.43,1.8,4.15,1.49,4.58,3.1,2.35,8.42-4.15,7.56-4.58,9.41-5.45,23.23-.62,41.56-14.93,62.62-8.11,11.95-24.53,11.02-26.63,12.94-.62.56-.06,3.72-1.24,5.51-.68,1.05-3.28,1.18-3.65,2.66-1.05,4.4.37,9.97-.06,14.62,7.93,3.03,9.29-3.84,11.09-4.46,7.37-2.6,14.68-3.03,22.48-2.35.25-9.23,13.32-10.28,21.68-11.15,11.83-1.24,27.13,2.73,35.92-.87,1.61-.68,1.67-3.9,3.47-4.34,10.03-2.48,26.07-1.8,36.73-2.42l4.65-2.23,3.59-54.19,9.17-8.61-4.83-1.49c4.09-11.27-2.42-23.41,2.97-34.19,2.11-4.21,6.13-3.53,6.5-3.9,3.96-4.95-7.62-4.83-7-10.34v-40.75l-25.58-3.47-2.29-15.11-.12-.06Z"/>
  <path d="M1179.96,1162.81c.5.12,6.81,6.38,5.33,7.37-8.3,2.23-3.84,11.52-4.71,18.58-3.16,25.33-14,72.65-22.85,95.57-1.49,3.84-5.26,3.53-6.38,7.56-3.78,14.12,0,29.54-10.1,43.48-1.61,2.23-6.57,2.29-7.18,4.89-1.42,5.7,1.05,15.24,0,21.62,10.34,4.15,14-4.03,15.55-4.65,30.35-11.71,28.24-18.21,50.23-36.48,4.71-3.9,16.6-8.79,22.36-13.63,7.62-6.44,36.73-44.9,48.43-33.07,3.22,3.22,2.85,15.36,1.36,20.07-1.24,3.84-16.54,19.76-20.5,23.66-5.2,5.02-32.76,32.02-36.67,34.13-3.53,1.92-9.04,0-14.31,3.22-4.03,2.48-11.46,14.31-15.48,17.03-13.44,8.98-31.34,16.85-44.78,26.07-3.28,2.29-23.16,14.31-24.09,15.48-2.91,3.9-3.72,15.67-5.51,20.75-10.16,28.24-23.47,58.65-32.14,87.27-3.47,11.46-7.06,36.11-13.13,44.59-11.52,15.98-6.01,9.1-8.24,28.99-1.05,9.35-6.38,11.27-6.63,12.33-1.49,6.69.5,15.24-1.24,23.91-1.49,7.43-7.37,11.21-8.42,18.15-3.22,2.91-23.72-6.75-26.88-9.6-8.61-7.62-4.27-32.08-.93-42.36,1.42-4.34,12.51-17.78,13.87-21.49,3.72-9.91,2.91-22.23,4.95-31.34.19-.74,7.12-5.14,8.67-12.63,5.14-24.84,11.58-36.42,23.72-58.22,4.15-7.49.56-15.79,0-23.6-7-1.8-18.21.93-23.23,6.01-1.73,1.73-1.11,6.75-5.88,9.85-13.81,9.1-36.11-8.73-21.12-24.59,3.41-3.65,11.02-4.34,12.63-5.95,2.23-2.29,1.05-10.41,5.33-14.49,12.7-12.33,31.4-15.36,45.71-22.85.87-.43,13.63-12.82,14.06-13.75,1.11-2.66,4.27-21.55,5.08-26.38,3.96-25.08,2.35-39.7,16.29-62.68,7-11.58,10.16-30.66,16.35-44.66,4.77-10.78-1.49-18.83,17.22-17.16,4.4-1.49,4.27-4.71,3.84-8.92l-11.58,2.29c-.99-1.05,3.65-25.46,4.71-28.43.87-2.54,5.57-2.54,7.74-9.04,2.29-7,.19-13.81,1.49-18.89.12-.62,8.05-8.49,8.67-8.67,3.53-.93,14.8-.5,18.58.74l-.19-.06Z"/>
  <path d="M2042.66,1217.87c5.95,14.12-.81,27.38.06,41.81h9.35c1.36,1.3-1.42,33.57-2.42,37.84-.43,1.73-3.96,1.49-4.4,3.34-4.03,17.28-6.07,33.88-4.83,51.72h11.64l2.17-15.3,25.7-3.34c-5.26-9.91,2.54-11.4,9.23-17.47,5.64-5.08,2.85-7.87,16.23-5.82-1.86-13.94,5.82-9.1,11.58-12.88,5.2-3.41,17.78-14.18,22.67-16.72,7.8-4.15,22.11-2.42,30.91-2.85-.31,3.1.81,7.12,0,9.91-.56,1.92-24.71,25.15-28.18,28.12-5.02,4.27-18.15,9.97-21.31,13.01-3.16,3.03-3.34,9.91-7,13.32-4.95,4.71-15.55,4.27-17.47,5.88-.81.68-.06,4.09-1.24,5.51-7.56,9.23-13.32,6.94-20.69,12.51-9.97,7.56-23.47,25.64-34.99,31.83-4.21,2.29-11.52.93-15.55,4.34-.43.37-6.57,9.29-6.81,9.85-3.34,8.24-2.85,18.52-5.02,26.63-3.03,11.27-10.47,28.12-14.18,39.76-9.1,28.74-13.87,65.59-18.46,95.32-1.86,11.77-7.31,23.78-8.98,30.91-1.42,6.13.68,13.69-1.18,21.74-3.78,16.41-23.1,16.91-36.91,15.86l-3.47-3.47c-1.36-4.95.68-10.84-.37-15.55-.37-1.67-4.09-1.42-4.52-3.16-3.28-13.5,7.43-18.52,9.1-29.91,1.36-9.17-1.61-21.37.19-29.61.37-1.61,3.78-1.55,4.95-4.83,2.73-7.37,1.05-15.36,2.91-22.67.68-2.66,16.29-20.75,16.72-22.79,1.18-5.95-1.92-9.91-1.42-15.05.62-6.26,8.79-21.86,9.23-23.85,1.11-4.65-.56-10.78.06-15.73-.56-4.52-41.56,15.05-36.85-8.86.5-2.6,12.14-15.86,13.69-16.78,6.87-3.96,11.27,4.09,9.17-12.82l-11.58,2.29c-2.42-12.45,10.78-9.1,15.61-12.26,6.01-3.84,11.02-18.46,22.42-17.4,3.41.31,8.86,7.18,10.59.37.25-.99.25-19.39,0-20.56-.56-3.72-4.09-5.95-4.34-9.29-.25-3.96,3.53-10.22,2.11-15.24,6.5,4.09,10.96.56,16.35-3.59,1.11-6.44-4.09-4.71-5.57-10.59-3.59-14.12-2.17-46.64.93-60.88.37-1.67,13.44-27.19,13.81-28.8,1.05-5.08-1.67-11.02,2.17-16.04,4.46-5.76,13.63-2.04,19.57-3.28,1.67-.31,1.92-7.43,8.42-4.58l.19.12Z"/>
  <path d="M817.46,1320.8c.37.12,5.08,5.26,5.14,5.64,2.91,12.14-4.83,9.17-7.49,14.99-2.04,4.34-.62,9.66-2.29,12.88-.74,1.42-10.84,8.24-12.51,10.65-7.8,11.77-16.66,30.84-24.84,42.61-1.49,2.11-11.58,8.98-13.13,11.77-3.78,6.81-7.06,20.93-11.52,27.56-1.42,2.11-16.85,15.55-21.12,20.13-2.54,2.73-12.94,10.71-13.38,11.52-2.17,3.65,1.42,11.83-1.55,15.98-1.42,1.98-6.01,1.36-7.56,2.79-1.3,1.24-2.42,7.37-4.52,10.47-4.89,7.06-8.36,3.96-7.93,17.96.12,5.08,1.73,29.3,2.48,32.08.62,2.42,5.57,2.23,6.69,5.39,2.91,8.24-1.36,24.9,2.48,37.04,3.34,10.59,4.95,22.11,7.49,29.85,1.42,4.34,8.98.56,6.81,16.6-.19,1.18-10.53,12.26-11.27,12.7-12.33,6.75-24.65,1.11-33.14-8.05-2.11-2.29-1.55-6.94-3.72-8.42-3.96-2.66-11.64,0-13.25-4.89l-2.6-60.08c-10.78-7.56-16.1,5.82-21.24,9.17-6.32,4.09-16.54,2.73-23.85,2.23-4.34-9.41-4.15-28.24,2.79-36.05,3.41-3.84,10.34-3.96,13.25-7.12,2.79-2.91,3.16-8.98,5.33-11.52,1.8-2.17,11.21-8.55,12.33-10.84,2.97-6.01,1.98-45.58.99-53.95-.5-4.15-3.84-3.34-4.58-5.14-7.12-17.09-.19-60.57-4.89-80.27-.43-1.86-7.06-.68-4.46-11.52,2.17-9.04,37.1-11.33,43.48-5.82,1.55,1.36,1.49,4.95,2.85,7.06.99,1.55,4.15,1.36,4.58,3.28,4.58,20.13-1.73,42.49,4.89,61.63.43,1.24,6.63,8.36,8.98,6.32,5.7-7.18,5.82-15.61,9.66-23.47,1.49-2.97,13.07-16.23,15.92-19.45,12.2-13.81,24.84-32.14,35.74-47.81,3.72-5.39,11.77-22.61,13.87-24.53,3.41-3.1,9.48-3.84,13.69-5.57,1.67-.68,1.8-3.96,3.47-4.34,4.52-1.05,23.47-.74,27.93.68v-.12Z"/>
  <path d="M2182.02,1420.15l-2.17,47.01c-10.59,10.53-4.21,35.18-8.42,50.17-1.42,5.08-5.14,5.08-5.45,6.5-4.83,23.1.68,50.48-4.89,73.33-.5,1.98-8.24,2.6-3.78,15.11.31.81,12.2,11.09,13.01,11.21,7.06,1.36,16.97-7.25,25.21-10.1,3.34-1.11,7.43.12,10.53-.62,1.36-.31,4.89-8.42,10.9-7l.12-5.7-4.46-1.3-.19-4.4c9.23-.99,6.19-19.57,9.17-26.45,1.18-2.73,5.14-.56,7.25-2.97,4.21-4.83,14.49-21.99,17.9-27.93,4.4-7.74,1.24-15.86,2.73-22.42.25-.99,12.39-12.2,14-14.86,7.8-12.39,14.8-34,19.14-47.75,3.96-12.76,3.22-9.79,11.64-15.73,1.55-1.11,1.42-3.65,3.53-4.46,6.07-2.42,35.12-9.66,35.24.74,0,3.1-3.22,20.19-4.34,23.6-1.49,4.4-4.34,3.53-5.51,6.26-5.45,12.57-15.42,47.88-22.42,56.11-4.21,4.89-2.66-1.8-9.6,11.27-4.58,8.67-10.28,20.93-14.43,30.29-8.67,19.45-6.07,29.85-8.79,49.18-2.11,15.11-19.32,22.17-28.99,31.59h-4.58l-2.29-4.71-3.34.19c1.42,6.38-9.91,5.64-14.8,4.46-1.61-.37-.99-7.25-11.58-4.52-1.67.43-1.55,3.78-4.83,4.95-14.8,5.33-25.64,9.48-41.62,13.69-1.92.5-1.67,4.03-3.34,4.4-17.84,4.21-23.6-12.82-42.24-9.54-5.64-7.62,0-15.24-.31-21.8-.74-19.14-2.42-36.11-.19-55.93.43-4.03,4.71-3.03,5.76-8.36,5.02-25.27,14.12-69.68,12.88-95.94-.25-5.08-5.64-12.08-4.4-16.17,1.24-4.09,7.43-2.73,8.67-4.21.81-.93,1.3-7.74,3.53-11.64.5-.87,10.71-12.39,11.52-12.7,3.9-1.42,31.77-5.45,34.06-2.85h.19Z"/>
  <path d="M1370.54,1385.71c5.02,5.33,2.42,15.92.12,22.11-6.32,2.6-14.93,2.66-20.93,5.33-2.66,1.18-14.25,11.64-17.53,13.63-6.81,4.09-19.26,4.4-24.9,14.18-1.24,2.17-.56,5.51-1.42,7.37-1.05,2.11-4.03,1.98-4.34,3.47-2.17,9.66,0,23.97-3.47,35.74-1.92,6.69-10.22,13.69-8.05,21.55,1.8,6.63,27.07,4.03,32.89,1.3,3.03-1.42,16.23-13.56,17.4-13.81,3.41-.87,23.1-.68,27.5-.12,7.25.87,6.81,9.6,8.18,12.26,1.55,3.03,6.75.87,4.4,6.38-5.14,1.98-9.35,10.59-15.55,14-17.34,9.48-42.43,20.38-60.51,27.81-6.63,2.73-16.41,2.11-23.54,2.73-2.79,6.75,0,13.75-1.61,20.38-1.24,4.95-4.71,4.77-5.39,6.75-2.04,6.13-4.34,31.46-.19,35.37,5.82,2.11,3.9-4.21,6.19-4.65,2.97-.62,7.87.99,9.79-.25,1.05-.68,1.11-5.95,3.22-8.36,2.73-3.1,18.89-10.22,23.35-12.76,12.45-7.06,39.08-20.56,52.15-24.9,4.09-1.36,14.74-4.71,18.27-4.77,13.25-.19,19.01,15.79,12.63,26.2-.43.68-10.59,10.47-11.21,10.84-5.64,3.34-19.39,3.16-23.16,5.33-6.94,3.9-23.54,19.08-29.17,21.86-4.46,2.23-11.77,1.98-17.34,4.71-18.21,9.04-37.9,26.45-59.89,28.49-8.92.81-54.69.5-59.02-4.83-3.41-4.21,5.57-14.74,9.17-17.22.56-.37,10.41-5.39,11.02-5.64,7.12-2.6,18.27-3.78,26.07-4.89l-4.65-16.23,9.1-.25c5.95-14.25,0-28.12,5.08-42.18.56-1.55,3.9-1.67,4.4-3.47,3.59-13.69-5.7-8.61-8.18-12.14-1.67-2.42-.06-6.94-1.61-8.98-.5-.68-12.26-5.39-14.62-7.37-3.59-3.03-9.85-10.22-8.24-14.99,20.07-5.08,39.76-7,43.6-30.53-13.81-7.62-5.76-23.35-8.79-35.61-15.3.87-28.86-1.24-43.48-5.33l-2.48-27.25c6.87.81,5.57-5.2,12.45-5.14,7.56.12,5.39,4.4,7.43,4.83,9.04,2.17,26.63-5.45,35.98-9.54,19.51-8.61,40.13-25.08,59.58-32.02,10.65-3.78,30.53-9.04,39.39.37l-.12.25Z"/>
  <path d="M961.64,1348.43c.99,1.73,1.24,20.81.5,23.41-.5,1.73-12.26,9.72-13.87,12.82-2.85,5.39-2.79,15.92-4.95,21.93-.68,1.86-3.53,1.86-4.21,3.65-13.32,36.85-20.25,75.31-33.01,112.47-2.91,8.42-4.77,18.39-8.36,26.88-9.6,22.85-9.85,50.79-19.45,75.5-.81,2.04-3.59,1.98-4.27,3.59-1.92,4.15-1.3,12.45-6.32,14.12l-25.02-1.73c-2.29-1.67.99-41.06,2.48-46.51,1.55-5.76,5.76-5.14,6.81-9.29,1.8-6.75-.06-14.31,2.54-20.62,2.35-5.76,22.36-10.34.62-18.21.99-6.26-1.11-14.49.19-20.19.43-1.86,3.59-1.73,4.65-3.28,1.42-2.04,1.24-6.01,2.79-7.12,6.75-4.95,20.81.87,15.48-18.95-16.1.31-.31-9.29.19-11.15,3.53-13.01,2.35-25.7,14.12-36.67,2.79-2.6,5.88-2.6,9.17-1.11l-4.52-17.65c-2.48-1.67-9.72,0-12.2,1.42-1.24.68-18.64,18.09-20.5,20.19-8.86,10.47-.31,5.95-15.61,16.04-3.65,2.42-3.34,6.87-8.61,7.87-16.47,3.16-12.51-4.95-17.34-10.16-2.91-3.16-20.25-8.3-18.7-14.25,1.92-3.22,6.69-2.91,9.04-4.89,17.34-14.74,30.97-19.76,50.6-29.67,4.21-2.11,6.81-11.21,8.36-12.45,1.73-1.49,17.4-10.28,18.21-11.33,3.34-4.27-1.36-10.16,11.4-7.87-2.04-6.57,5.2-13.5,10.03-17.84,7.06-6.26,13.75-10.1,21.74-15.48,1.98-1.3,2.48-5.95,5.33-7.37,7.49-3.72,16.47-.43,22.79,4.03l-.06-.12Z"/>
  <path d="M2699.43,1453.97c-6.87,20.13-8.49,39.08-16.97,58.47-2.35,5.45-7.99,10.65-9.85,20.44-3.72,20.19-8.92,42.55-18.83,61.94-1.36,2.66-5.51,2.73-6.5,5.64-1.8,5.26.43,14.06-2.73,19.94-1.36,2.54-13.44,10.71-14.62,13.94-5.02,13.07.93,27.25-14.8,36.23-11.77,6.69-25.27.37-21.55-14.18.43-1.73,3.84-1.42,4.4-3.34,1.42-5.08.5-12.39,3.03-17.59,1.55-3.16,5.08-3.34,6.38-5.7,5.95-10.71-1.3-17.34,20.93-14.49l-.99-7.12-15.36-3.22c-3.65-2.29-.87-12.2.37-15.73,15.55-43.73,35.18-88.32,50.73-131.43,1.73-4.89-.19-10.96,5.57-16.1,3.72-3.34,9.41-3.53,13.69-5.64,1.73-.87,2.17-3.53,3.72-4.21,21.12-9.17,18.52,7.18,13.44,22.11l-.06.06Z"/>
</svg>